<svg width="44" height="44" viewBox="0 0 44 44" fill="none" xmlns="http://www.w3.org/2000/svg">
<path d="M2 38.2084V5.92066C2 5.11163 2.91069 4.63748 3.57346 5.10142L26.6361 21.2453C27.2048 21.6434 27.2048 22.4856 26.6361 22.8837L3.57346 39.0276C2.91068 39.4916 2 39.0174 2 38.2084Z" fill="#B82225"/>
<path d="M16.1936 38.2084V5.92066C16.1936 5.11163 17.1043 4.63748 17.7671 5.10142L40.8297 21.2453C41.3984 21.6434 41.3984 22.4856 40.8297 22.8837L17.7671 39.0276C17.1043 39.4916 16.1936 39.0174 16.1936 38.2084Z" fill="#E23D24"/>
<path fill-rule="evenodd" clip-rule="evenodd" d="M16.1936 13.9354L26.6362 21.2452C27.2049 21.6433 27.2049 22.4856 26.6362 22.8837L16.1936 30.1935V13.9354Z" fill="#821113"/>
</svg>
