<svg width="45" height="44" viewBox="0 0 45 44" fill="none" xmlns="http://www.w3.org/2000/svg">
<path d="M35.7795 27.556V16.3438C35.7795 15.9625 35.37 15.7215 35.0367 15.9067L24.9457 21.5128C24.6028 21.7033 24.6028 22.1965 24.9457 22.387L35.0367 27.9931C35.37 28.1783 35.7795 27.9373 35.7795 27.556Z" fill="#E23D24"/>
<path d="M8.66481 27.556V16.3438C8.66481 15.9625 9.07437 15.7215 9.40763 15.9067L19.4987 21.5128C19.8416 21.7033 19.8416 22.1965 19.4987 22.387L9.40763 27.9931C9.07437 28.1783 8.66481 27.9373 8.66481 27.556Z" fill="#E23D24"/>
<path d="M24.2491 6.88068L33.9591 12.4868C34.2893 12.6774 34.2932 13.1526 33.9663 13.3486L24.0657 19.2847C23.7293 19.4864 23.3022 19.2398 23.3087 18.8476L23.4991 7.30544C23.5054 6.92425 23.9189 6.69006 24.2491 6.88068Z" fill="#E23D24"/>
<path d="M20.4018 24.9572L10.6917 30.5633C10.3616 30.754 10.3576 31.2291 10.6846 31.4252L20.5852 37.3612C20.9216 37.5629 21.3487 37.3163 21.3422 36.9241L21.1518 25.382C21.1455 25.0008 20.732 24.7666 20.4018 24.9572Z" fill="#E23D24"/>
<path d="M33.9592 30.5633L24.2491 24.9572C23.9189 24.7665 23.5054 25.0007 23.4992 25.3819L23.3087 36.9241C23.3022 37.3163 23.7293 37.5629 24.0657 37.3612L33.9663 31.4251C34.2933 31.2291 34.2893 30.7539 33.9592 30.5633Z" fill="#E23D24"/>
<path d="M10.6917 12.4869L20.4018 6.88075C20.732 6.69013 21.1454 6.92432 21.1517 7.30551L21.3422 18.8477C21.3487 19.2399 20.9216 19.4864 20.5851 19.2847L10.6846 13.3487C10.3576 13.1527 10.3615 12.6775 10.6917 12.4869Z" fill="#E23D24"/>
<circle cx="22.222" cy="4.51912" r="4.51912" fill="#B82225"/>
<path fill-rule="evenodd" clip-rule="evenodd" d="M19.0017 7.68931L20.4021 6.88081C20.7322 6.69018 21.1457 6.92438 21.152 7.30557L21.1786 8.91717C20.3378 8.71838 19.5878 8.28473 19.0017 7.68931Z" fill="#821113"/>
<path fill-rule="evenodd" clip-rule="evenodd" d="M25.5163 7.61255C24.9674 8.19687 24.2649 8.63514 23.4731 8.8628L23.4988 7.30551C23.5051 6.92432 23.9186 6.69012 24.2488 6.88074L25.5163 7.61255Z" fill="#821113"/>
<circle cx="22.222" cy="39.3809" r="4.51912" fill="#B82225"/>
<path fill-rule="evenodd" clip-rule="evenodd" d="M25.6361 36.4197C25.0422 35.7356 24.246 35.2317 23.3406 35.0012L23.3089 36.9241C23.3024 37.3163 23.7295 37.5629 24.066 37.3612L25.6361 36.4197Z" fill="#821113"/>
<path fill-rule="evenodd" clip-rule="evenodd" d="M21.3096 34.954C20.3557 35.1495 19.5114 35.6456 18.8799 36.339L20.5851 37.3614C20.9215 37.5631 21.3486 37.3165 21.3421 36.9243L21.3096 34.954Z" fill="#821113"/>
<circle cx="36.4249" cy="13.5573" r="4.51912" fill="#B82225"/>
<path fill-rule="evenodd" clip-rule="evenodd" d="M32.3666 11.5674L33.9592 12.4869C34.2894 12.6775 34.2933 13.1527 33.9664 13.3487L32.0092 14.5222C31.9416 14.2113 31.906 13.8885 31.906 13.5574C31.906 12.8433 32.0717 12.1678 32.3666 11.5674Z" fill="#821113"/>
<path fill-rule="evenodd" clip-rule="evenodd" d="M33.3335 16.8531L35.0371 15.9067C35.3703 15.7216 35.7799 15.9626 35.7799 16.3438V18.0307C34.8402 17.8963 33.9937 17.4728 33.3335 16.8531Z" fill="#821113"/>
<circle cx="8.01912" cy="13.5573" r="4.51912" fill="#B82225"/>
<path fill-rule="evenodd" clip-rule="evenodd" d="M11.1107 16.8531C10.4505 17.4727 9.60401 17.8963 8.66431 18.0307V16.3438C8.66431 15.9626 9.07386 15.7216 9.40713 15.9067L11.1107 16.8531Z" fill="#821113"/>
<circle cx="8.01912" cy="30.3426" r="4.51912" fill="#B82225"/>
<path fill-rule="evenodd" clip-rule="evenodd" d="M12.1043 32.2765C12.3823 31.6902 12.5378 31.0346 12.5378 30.3426C12.5378 30.0681 12.5134 29.7994 12.4665 29.5384L10.6914 30.5632C10.3612 30.7539 10.3573 31.229 10.6843 31.4251L12.1043 32.2765Z" fill="#821113"/>
<path opacity="0.5" fill-rule="evenodd" clip-rule="evenodd" d="M12.1217 11.6609L10.6912 12.4868C10.361 12.6775 10.3571 13.1526 10.6841 13.3487L12.4571 14.4117C12.51 14.1351 12.5377 13.8494 12.5377 13.5574C12.5377 12.8801 12.3887 12.2376 12.1217 11.6609Z" fill="#821113"/>
<circle cx="36.4249" cy="30.3426" r="4.51912" fill="#B82225"/>
<path fill-rule="evenodd" clip-rule="evenodd" d="M35.7798 25.8693V27.5561C35.7798 27.9373 35.3702 28.1783 35.037 27.9932L33.3335 27.0468C33.9937 26.4272 34.8401 26.0037 35.7798 25.8693Z" fill="#821113"/>
<path fill-rule="evenodd" clip-rule="evenodd" d="M31.998 29.4309L33.9593 30.5633C34.2895 30.7539 34.2934 31.2291 33.9665 31.4251L32.3864 32.3725C32.0791 31.7621 31.906 31.0726 31.906 30.3427C31.906 30.0303 31.9377 29.7254 31.998 29.4309Z" fill="#821113"/>
<path fill-rule="evenodd" clip-rule="evenodd" d="M8.66431 25.8693V27.5561C8.66431 27.9373 9.07386 28.1783 9.40713 27.9932L11.1106 27.0468C10.4504 26.4272 9.60399 26.0037 8.66431 25.8693Z" fill="#821113"/>
</svg>
