<svg width="40" height="37" viewBox="0 0 40 37" fill="none" xmlns="http://www.w3.org/2000/svg">
<path d="M0 34.2084V1.92066C0 1.11163 0.910685 0.63748 1.57346 1.10142L24.6361 17.2453C25.2048 17.6434 25.2048 18.4856 24.6361 18.8837L1.57346 35.0276C0.910685 35.4916 0 35.0174 0 34.2084Z" fill="#B82225"/>
<path d="M14.1936 34.2084V1.92066C14.1936 1.11163 15.1043 0.63748 15.7671 1.10142L38.8297 17.2453C39.3984 17.6434 39.3984 18.4856 38.8297 18.8837L15.7671 35.0276C15.1043 35.4916 14.1936 35.0174 14.1936 34.2084Z" fill="#E23D24"/>
<path fill-rule="evenodd" clip-rule="evenodd" d="M14.1936 9.93542L24.6362 17.2452C25.2049 17.6433 25.2049 18.4856 24.6362 18.8837L14.1936 26.1935V9.93542Z" fill="#821113"/>
</svg>
